HIERARCHY
ROOT Hips
{
	OFFSET -0.179506 -22.333345 2.821913
	CHANNELS 6 Xposition Yposition Zposition Zrotation Yrotation Xrotation 
	JOINT LeftUpLeg
	{
		OFFSET 6.951974 -9.140623 -0.681533
		CHANNELS 3 Zrotation Yrotation Xrotation
		JOINT LeftLeg
		{
			OFFSET 3.427654 -37.519855 -0.449580
			CHANNELS 3 Zrotation Yrotation Xrotation
			JOINT LeftFoot
			{
				OFFSET -1.359570 -39.796059 -4.369333
				CHANNELS 3 Zrotation Yrotation Xrotation
				JOINT LeftToe
				{
					OFFSET 2.635814 -5.579078 11.928840
					CHANNELS 3 Zrotation Yrotation Xrotation
					End Site
					{
						OFFSET 0.000000 0.000000 0.000000
					}
				}
			}
		}
	}
	JOINT RightUpLeg
	{
		OFFSET -6.767048 -9.052170 -0.431982
		CHANNELS 3 Zrotation Yrotation Xrotation
		JOINT RightLeg
		{
			OFFSET -3.829005 -38.256897 -0.885003
			CHANNELS 3 Zrotation Yrotation Xrotation
			JOINT RightFoot
			{
				OFFSET 1.577377 -39.841461 -4.231180
				CHANNELS 3 Zrotation Yrotation Xrotation
				JOINT RightToe
				{
					OFFSET -2.537174 -4.814398 12.334795
					CHANNELS 3 Zrotation Yrotation Xrotation
					End Site
					{
						OFFSET 0.000000 0.000000 0.000000
					}
				}
			}
		}
	}
	JOINT Spine
	{
		OFFSET -0.253288 10.896323 -2.669631
		CHANNELS 3 Zrotation Yrotation Xrotation
		JOINT Spine1
		{
			OFFSET 0.548704 13.518043 0.109247
			CHANNELS 3 Zrotation Yrotation Xrotation
			JOINT Spine2
			{
				OFFSET 0.145701 5.292222 2.542457
				CHANNELS 3 Zrotation Yrotation Xrotation
				JOINT Neck
				{
					OFFSET -0.277840 21.387037 -4.285703
					CHANNELS 3 Zrotation Yrotation Xrotation
					JOINT Head
					{
						OFFSET 0.515184 6.496960 5.134897
						CHANNELS 3 Zrotation Yrotation Xrotation
						End Site
						{
							OFFSET 0.000000 0.000000 0.000000
						}
					}
				}
				JOINT LeftShoulder
				{
					OFFSET 7.884473 12.174932 -3.408961
					CHANNELS 3 Zrotation Yrotation Xrotation
					JOINT LeftArm
					{
						OFFSET 9.097692 3.046888 -0.886815
						CHANNELS 3 Zrotation Yrotation Xrotation
						JOINT LeftForeArm
						{
							OFFSET 25.961220 -1.277207 -2.745643
							CHANNELS 3 Zrotation Yrotation Xrotation
							JOINT LeftHand
							{
								OFFSET 24.923361 0.898606 -0.117091
								CHANNELS 3 Zrotation Yrotation Xrotation
								End Site
								{
									OFFSET 0.000000 0.000000 0.000000
								}
							}
						}
					}
				}
				JOINT RightShoulder
				{
					OFFSET -8.175920 11.883285 -3.861528
					CHANNELS 3 Zrotation Yrotation Xrotation
					JOINT RightArm
					{
						OFFSET -9.601238 3.255117 -0.914307
						CHANNELS 3 Zrotation Yrotation Xrotation
						JOINT RightForeArm
						{
							OFFSET -25.374195 -1.332924 -2.140099
							CHANNELS 3 Zrotation Yrotation Xrotation
							JOINT RightHand
							{
								OFFSET -25.529810 0.777228 -0.555919
								CHANNELS 3 Zrotation Yrotation Xrotation
								End Site
								{
									OFFSET 0.000000 0.000000 0.000000
								}
							}
						}
					}
				}
			}
		}
	}
}
MOTION
Frames: 15
Frame Time: 0.033333
69.091034 -7.490657 93.079346 -90.333449 4.140235 82.280978 16.876606 10.917892 5.188240 -3.578002 8.166007 27.776687 -2.614378 13.444983 -28.377099 nan nan nan -11.613319 -4.277048 -11.021307 4.026163 -1.926501 13.233421 8.511488 3.995799 -4.237185 nan nan nan -6.291771 -1.171553 5.920331 8.014606 -7.233933 9.633288 2.883507 -0.399175 -4.966835 1.994120 -13.046959 17.992313 8.765372 -19.731186 1.415146 -2.251477 -16.716458 1.426177 -57.665426 -43.998950 20.674619 34.290158 -50.891853 -22.659765 16.562985 -34.003788 -34.643659 5.618445 11.656795 -5.647534 26.772982 17.001433 -12.502318 -58.156532 41.475966 -53.567709 -4.447129 21.621759 -20.116531 
68.880005 -7.423327 93.111694 -90.135235 4.159103 82.326463 16.918592 10.874407 5.393964 -3.640850 7.820632 27.417268 -2.550650 13.524353 -28.280058 nan nan nan -11.588675 -4.053016 -11.448995 4.019223 -1.931731 14.362054 8.484332 3.690348 -4.629116 nan nan nan -6.338199 -1.445819 6.133529 8.014137 -7.298745 9.332772 2.920563 -0.609788 -4.800833 2.107434 -13.067976 17.781054 8.594301 -19.433416 1.628794 -2.177004 -16.294329 1.683370 -56.420694 -42.687397 19.126388 33.179400 -49.341398 -22.039289 15.639014 -34.017924 -34.031399 5.400121 11.470507 -5.853112 26.458445 17.037202 -12.757254 -58.486571 41.619365 -54.077091 -4.418164 21.931615 -20.649479 
68.683342 -7.341851 93.159775 -89.850085 4.125508 82.371790 16.895166 10.809102 5.568035 -3.748079 7.424382 27.015201 -2.534386 13.687902 -28.150547 nan nan nan -11.626755 -3.724782 -11.917130 4.058588 -1.953094 15.601659 8.454731 3.198284 -5.169070 nan nan nan -6.480798 -1.687872 6.443975 8.031949 -7.357373 8.808888 3.018386 -0.815581 -4.477780 2.164963 -13.219327 17.655364 8.524371 -18.949242 1.666731 -2.349547 -16.067805 1.961905 -54.821258 -41.112267 17.549090 31.860799 -47.891097 -21.373721 15.702616 -33.945359 -34.203269 5.148511 11.397193 -6.237327 26.096425 16.847542 -12.948989 -58.754450 41.662619 -54.452913 -4.847667 22.132556 -21.681366 
68.476189 -7.255004 93.224358 -89.393965 4.085606 82.439459 16.831197 10.665036 5.666757 -3.820217 6.959554 26.635687 -2.474532 13.894518 -27.924170 nan nan nan -11.683978 -3.569723 -12.348657 3.959999 -2.065104 16.781287 8.256544 2.927602 -5.503342 nan nan nan -6.577665 -1.942854 6.678933 8.038866 -7.483824 8.505880 3.031172 -1.007614 -4.304885 2.132713 -13.538046 17.737799 8.614296 -18.270766 1.484079 -2.539900 -15.740041 2.331288 -53.367846 -39.491579 16.130952 30.601783 -46.623762 -20.803949 15.685382 -33.398992 -34.567377 4.937741 11.096731 -6.685302 25.667217 16.702563 -13.211003 -58.953801 41.830909 -54.780422 -4.898848 22.070483 -21.878887 
68.256989 -7.146824 93.287216 -88.847163 4.050704 82.609459 16.773544 10.489212 5.649350 -3.891223 6.469666 26.243091 -2.462768 14.017507 -27.711889 nan nan nan -11.729053 -3.406946 -12.895540 3.735800 -2.269555 17.979474 8.065312 2.812131 -5.774128 nan nan nan -6.632011 -2.242188 6.734645 8.001190 -7.625434 8.359730 2.974732 -1.210264 -4.262029 2.194506 -13.767298 17.890256 8.627434 -17.770490 1.381539 -2.697877 -15.258516 2.641959 -52.179680 -37.930359 14.783129 29.342515 -45.073422 -20.118445 14.224089 -33.218787 -33.812039 4.750634 10.783077 -6.997530 25.254309 16.534390 -13.548155 -59.274415 41.851020 -55.174442 -4.335528 22.002449 -21.726172 
68.030098 -7.035564 93.351746 -88.284505 4.024339 82.781057 16.736937 10.324453 5.625230 -3.985752 5.922666 25.855979 -2.441656 14.187210 -27.509561 nan nan nan -11.777560 -3.143559 -13.514369 3.573657 -2.423068 19.380147 8.094900 2.434657 -5.992182 nan nan nan -6.650711 -2.560515 6.813826 7.950729 -7.724423 8.063333 2.907990 -1.402057 -4.031105 2.204222 -13.990262 17.921620 8.636550 -17.368592 1.383204 -2.781862 -14.754892 2.757294 -51.277103 -36.408212 13.683045 28.059416 -43.166734 -18.723391 13.281168 -33.260876 -33.283653 4.469467 10.464714 -7.331477 24.910204 16.408169 -13.840048 -59.598565 41.676912 -55.422243 -4.311710 22.008120 -22.118416 
67.788498 -6.921723 93.420029 -87.617396 4.029180 82.929522 16.759673 10.188731 5.608298 -4.100082 5.237854 25.443328 -2.392781 14.368372 -27.339039 nan nan nan -11.828184 -2.914066 -14.090883 3.552352 -2.426915 20.911072 8.298752 1.734804 -6.118894 nan nan nan -6.604264 -2.888499 7.033322 7.893249 -7.835633 7.562723 2.826588 -1.571037 -3.699956 2.110689 -14.379723 17.969391 8.760311 -16.841926 1.301427 -2.987474 -14.258589 2.909651 -50.226300 -34.812511 12.542989 26.680200 -41.622737 -17.217689 13.217004 -33.055241 -33.562017 4.066414 9.948087 -7.802303 24.625202 16.289071 -14.289893 -59.529955 41.829984 -55.345620 -4.938037 21.871418 -22.477966 
67.511345 -6.781639 93.489090 -86.818228 4.059535 83.022296 16.913183 10.109510 5.682821 -4.221836 4.449298 24.959893 -2.407803 14.302073 -27.179354 nan nan nan -11.828033 -2.768762 -14.566562 3.349481 -2.478366 22.261118 8.142306 1.462510 -6.319941 nan nan nan -6.512442 -3.272052 7.398140 7.776698 -7.928797 6.848682 2.710835 -1.725225 -3.263613 2.044804 -14.803270 18.108484 8.975866 -16.232032 1.239882 -3.394986 -13.733082 3.377680 -48.650552 -33.210169 11.093001 25.093266 -40.631321 -16.035409 13.195276 -32.764227 -33.462886 3.774738 9.380799 -8.113406 24.154171 16.156344 -15.132082 -59.291010 42.100181 -55.295841 -5.421329 21.763797 -22.319624 
67.202888 -6.619576 93.572838 -85.958943 4.057355 83.100867 17.075530 9.999974 5.872686 -4.363171 3.608702 24.317648 -2.390425 14.209828 -26.995612 nan nan nan -11.868632 -2.498215 -15.087694 3.204236 -2.508303 23.979427 8.341055 0.925827 -6.562161 nan nan nan -6.501957 -3.686064 7.694597 7.623918 -8.072077 6.166525 2.622900 -1.838916 -2.765848 1.898655 -15.187545 18.416328 9.282101 -15.670712 1.086967 -3.839808 -13.477052 3.790992 -47.137761 -31.225835 9.771210 23.870969 -39.612374 -15.074814 13.297671 -32.613719 -33.137563 3.605703 9.113853 -8.434574 23.523151 15.740635 -15.879322 -59.148735 42.166370 -55.256086 -5.967812 21.665366 -22.460750 
66.907166 -6.453329 93.675323 -85.045948 4.014135 83.232933 17.188359 9.812132 6.030063 -4.540944 2.814462 23.595269 -2.364032 14.228473 -26.757781 nan nan nan -11.981172 -2.170418 -15.680729 3.119701 -2.461762 25.745013 8.568588 0.372241 -6.550200 nan nan nan -6.577382 -4.137649 7.872276 7.487533 -8.268497 5.579922 2.527228 -1.870476 -2.200684 1.784228 -15.609502 18.723653 9.586242 -15.262536 0.944069 -4.156369 -13.253320 3.874570 -46.153034 -29.112903 9.035996 23.024753 -38.194190 -14.003968 13.779425 -32.576450 -33.549029 3.404341 8.884136 -8.985511 22.970334 15.247459 -16.426999 -58.992420 42.131754 -55.141527 -6.409037 21.560827 -22.550880 
66.645027 -6.302565 93.775864 -83.964966 3.940855 83.395148 17.244865 9.588187 6.060247 -4.698261 1.942724 22.904632 -2.451124 14.226765 -26.550709 nan nan nan -12.205528 -1.977666 -16.288462 3.108799 -2.363055 27.456136 8.609067 0.099892 -6.464253 nan nan nan -6.694591 -4.463701 8.037511 7.415242 -8.441141 5.338672 2.430228 -2.019752 -1.938117 1.779973 -16.221930 18.859949 9.707711 -14.861552 0.914889 -4.388353 -12.874657 3.973764 -45.475454 -27.443530 8.463063 22.127842 -36.653240 -13.013425 14.269930 -32.313817 -33.981266 3.135276 8.389399 -9.605590 22.468432 15.020152 -17.017444 -58.674063 41.988159 -55.038971 -6.737837 21.448637 -22.284839 
66.380325 -6.163593 93.869507 -82.762604 3.868915 83.538387 17.296751 9.328378 6.089697 -4.787802 0.989532 22.186250 -2.654727 14.131258 -26.468294 nan nan nan -12.469361 -1.841157 -16.939290 3.093260 -2.291503 29.335225 8.746168 -0.154835 -6.438480 nan nan nan -6.798379 -4.756335 8.282366 7.343230 -8.589686 5.332872 2.330278 -2.256670 -1.960182 1.904042 -16.769845 18.888016 9.787304 -14.507329 0.952213 -4.490904 -12.362208 4.186436 -44.906694 -26.037267 7.826214 21.027724 -35.287456 -12.319392 14.431249 -32.251968 -34.045737 2.786941 7.838819 -10.067030 22.049251 14.916847 -17.494723 -58.348683 41.589060 -55.061076 -7.241476 21.587180 -22.353481 
66.068237 -6.001648 93.964981 -81.519970 3.871490 83.671678 17.487346 9.148197 6.208862 -4.776272 0.073955 21.367592 -2.861836 13.843835 -26.327587 nan nan nan -12.590763 -1.679951 -17.566057 3.006207 -2.104467 31.270606 9.007687 -0.534264 -6.344880 nan nan nan -6.804387 -5.175268 8.619161 7.242128 -8.737635 5.026707 2.191115 -2.461534 -1.826043 1.925470 -17.123342 19.155825 9.976310 -14.145532 0.908216 -4.677423 -11.768942 4.511480 -43.932584 -24.352995 7.178607 19.598860 -34.315210 -11.427202 14.612264 -32.434582 -34.050168 2.518668 7.413106 -10.272423 21.533553 14.830139 -17.930714 -58.010719 41.145912 -55.050173 -8.136815 21.766558 -23.026780 
65.739342 -5.816878 94.062271 -80.328139 3.861288 83.856490 17.744151 9.047896 6.361023 -4.797033 -0.712349 20.412093 -3.028355 13.531107 -25.994333 nan nan nan -12.707551 -1.503270 -18.261488 2.964098 -1.747987 33.154111 9.244010 -0.800553 -6.050480 nan nan nan -6.773120 -5.621609 9.006017 7.101364 -8.857543 4.439038 2.017355 -2.623265 -1.534821 1.855492 -17.421191 19.562858 10.218561 -13.768277 0.852052 -4.986910 -11.078436 4.870467 -42.904696 -22.542663 6.500184 18.312479 -33.568378 -10.782685 14.749626 -32.362597 -33.661708 2.340374 6.961116 -10.342497 21.023854 14.894389 -18.580208 -57.632439 40.869011 -55.052844 -8.938730 21.829556 -23.324907 
65.405319 -5.610085 94.158958 -79.127789 3.828813 84.061031 18.021920 8.948091 6.509376 -4.866837 -1.502227 19.411672 -3.240940 13.281930 -25.671848 nan nan nan -12.886260 -1.306574 -18.953490 2.990149 -1.295574 34.925597 9.383913 -0.928131 -5.699369 nan nan nan -6.797960 -6.019638 9.344392 6.960952 -8.983056 3.903304 1.844007 -2.798010 -1.201138 1.831331 -17.677911 19.906663 10.394988 -13.341155 0.871295 -5.237941 -10.359877 5.227364 -42.162314 -20.843187 5.759526 17.477016 -32.788749 -10.346837 14.695123 -32.111851 -32.963226 2.221669 6.504540 -10.364505 20.571405 15.090672 -19.364364 -57.365736 40.643437 -55.065959 -9.413669 21.887647 -23.114601 
